<svg id="Layer_1" data-name="Layer 1" xmlns="http://www.w3.org/2000/svg" xmlns:xlink="http://www.w3.org/1999/xlink" viewBox="0 0 460 425"><defs><style>.cls-1,.cls-10,.cls-2,.cls-6,.cls-8,.cls-9{fill:none;}.cls-10,.cls-11,.cls-12,.cls-2,.cls-3,.cls-4,.cls-6,.cls-8,.cls-9{stroke:#000;stroke-miterlimit:10;}.cls-10,.cls-11,.cls-12,.cls-2,.cls-3,.cls-4,.cls-9{stroke-width:3px;}.cls-3{fill:#fff;}.cls-5{clip-path:url(#clip-path);}.cls-6{stroke-width:2px;}.cls-7{clip-path:url(#clip-path-2);}.cls-10,.cls-9{stroke-linecap:round;}.cls-10{stroke-dasharray:15.29 10.19;}.cls-11{fill:#00968f;}.cls-12{fill:#ff6720;}</style><clipPath id="clip-path"><path class="cls-1" d="M252.62,316.62a104,104,0,1,1,104-104A104,104,0,0,1,252.62,316.62Z"/></clipPath><clipPath id="clip-path-2"><path class="cls-2" d="M422.12,227.12v-29L381,191.43a131.51,131.51,0,0,0-6.8-25.88l32.37-26.44L392.08,114l-39,14.76a132.55,132.55,0,0,0-18.84-19l14.83-39.12L324,56.16,297.66,88.4a131.15,131.15,0,0,0-25.82-7l-6.72-41.27h-15v68l1,0a104,104,0,0,1,0,208h-1v68h14L270.81,343a130.74,130.74,0,0,0,25.87-6.81l26.45,32.38,25.11-14.5-14.76-39a133,133,0,0,0,19-18.83l39.12,14.83L406.08,286l-32.24-26.35a131.05,131.05,0,0,0,7-25.81Z"/></clipPath></defs><circle class="cls-3" cx="250.62" cy="212.62" r="48.5"/><circle class="cls-3" cx="250.62" cy="261.62" r="10"/><line class="cls-2" x1="299.12" y1="147.62" x2="299.12" y2="277.12"/><circle class="cls-4" cx="299.12" cy="150.12" r="7.5"/><g class="cls-5"><line class="cls-6" x1="411.12" y1="13.12" x2="311.12" y2="396.12"/><line class="cls-6" x1="435.12" y1="13.12" x2="335.12" y2="396.12"/><line class="cls-6" x1="459.12" y1="13.12" x2="359.12" y2="396.12"/></g><path class="cls-3" d="M114.17,84.62,251.62,210.78,115.67,339.58s-57-42.19-57-128.8C58.62,125.29,114.17,84.62,114.17,84.62Z"/><g class="cls-7"><line class="cls-8" x1="283.97" y1="38" x2="-86" y2="407.97"/><line class="cls-8" x1="323.13" y1="38" x2="-46.84" y2="407.97"/><line class="cls-8" x1="362.29" y1="38" x2="-7.69" y2="407.97"/><line class="cls-8" x1="401.44" y1="38" x2="31.47" y2="407.97"/><line class="cls-8" x1="440.6" y1="38" x2="70.62" y2="407.97"/><line class="cls-8" x1="479.75" y1="38" x2="109.78" y2="407.97"/><line class="cls-8" x1="518.91" y1="38" x2="148.94" y2="407.97"/><line class="cls-8" x1="558.07" y1="38" x2="188.09" y2="407.97"/><line class="cls-8" x1="597.22" y1="38" x2="227.25" y2="407.97"/><line class="cls-8" x1="636.38" y1="38" x2="266.4" y2="407.97"/><line class="cls-8" x1="675.53" y1="38" x2="305.56" y2="407.97"/><line class="cls-8" x1="714.69" y1="38" x2="344.71" y2="407.97"/><line class="cls-8" x1="753.84" y1="38" x2="383.87" y2="407.97"/><line class="cls-8" x1="793" y1="38" x2="423.03" y2="407.97"/><line class="cls-8" x1="110.17" y1="74.16" x2="-259.8" y2="444.13"/><line class="cls-8" x1="149.33" y1="74.16" x2="-220.64" y2="444.13"/><line class="cls-8" x1="188.49" y1="74.16" x2="-181.49" y2="444.13"/><line class="cls-8" x1="227.64" y1="74.16" x2="-142.33" y2="444.13"/><line class="cls-8" x1="285.98" y1="54.98" x2="-103.18" y2="444.13"/><line class="cls-8" x1="305.95" y1="74.16" x2="-64.02" y2="444.13"/><line class="cls-8" x1="360.63" y1="58.63" x2="-24.86" y2="444.13"/><line class="cls-8" x1="384.26" y1="74.16" x2="14.29" y2="444.13"/><line class="cls-8" x1="423.42" y1="74.16" x2="53.45" y2="444.13"/><line class="cls-8" x1="462.58" y1="74.16" x2="92.6" y2="444.13"/><line class="cls-8" x1="501.73" y1="74.16" x2="131.76" y2="444.13"/><line class="cls-8" x1="540.89" y1="74.16" x2="170.91" y2="444.13"/><line class="cls-8" x1="580.04" y1="74.16" x2="210.07" y2="444.13"/><line class="cls-8" x1="619.2" y1="74.16" x2="249.23" y2="444.13"/></g><path class="cls-2" d="M422.12,227.12v-29L381,191.43a131.51,131.51,0,0,0-6.8-25.88l32.37-26.44L392.08,114l-39,14.76a132.55,132.55,0,0,0-18.84-19l14.83-39.12L324,56.16,297.66,88.4a131.15,131.15,0,0,0-25.82-7l-6.72-41.27h-15v68l1,0a104,104,0,0,1,0,208h-1v68h14L270.81,343a130.74,130.74,0,0,0,25.87-6.81l26.45,32.38,25.11-14.5-14.76-39a133,133,0,0,0,19-18.83l39.12,14.83L406.08,286l-32.24-26.35a131.05,131.05,0,0,0,7-25.81Z"/><path class="cls-9" d="M216.43,247.5a49.22,49.22,0,0,1-4.89-5.69"/><path class="cls-10" d="M206.43,233a48.62,48.62,0,0,1,2.32-44.13"/><path class="cls-9" d="M211.54,184.6a49.22,49.22,0,0,1,4.89-5.69"/><path class="cls-11" d="M250.62,282.12c-17.21,0-29.36-3.63-41.5-14l-77,72c12.8,12.32,57.52,43.82,120,44l-.38-102Z"/><path class="cls-12" d="M252.12,143.12h0v-103c-64.32,1.1-108,35.11-119.25,46.5l77.75,71.5C222.83,147.48,234.65,143.12,252.12,143.12Z"/><circle class="cls-3" cx="250.62" cy="164.62" r="10"/><circle class="cls-3" cx="298.62" cy="212.62" r="10"/><circle class="cls-4" cx="298.12" cy="278.12" r="7.5"/><path class="cls-2" d="M133.62,142.62s-29.87,27.13-29.5,65,29.5,65.5,29.5,65.5"/><polygon points="143.84 138.66 122.92 136.87 136.51 158.33 143.84 138.66"/><polygon points="144.39 277.05 123.47 278.84 137.05 257.38 144.39 277.05"/></svg>