<svg id="Layer_1" data-name="Layer 1" xmlns="http://www.w3.org/2000/svg" xmlns:xlink="http://www.w3.org/1999/xlink" viewBox="0 0 704.96 671.25"><defs><style>.cls-1,.cls-4,.cls-6,.cls-7,.cls-8,.cls-9{fill:none;}.cls-2{fill:#00afa8;}.cls-3{fill:#fff;}.cls-4,.cls-6,.cls-9{stroke:#fff;}.cls-4,.cls-6,.cls-7,.cls-8,.cls-9{stroke-miterlimit:10;}.cls-4,.cls-8{stroke-width:5px;}.cls-5{clip-path:url(#clip-path);}.cls-6,.cls-9{stroke-width:10px;}.cls-7{stroke:#00afa8;}.cls-8{stroke:#fdffff;}.cls-9{stroke-linecap:square;}</style><clipPath id="clip-path"><rect class="cls-1" x="93.65" y="203.51" width="109" height="108.75"/></clipPath></defs><polygon class="cls-2" points="273 19.5 39.48 253.01 124.95 571.99 443.94 657.46 677.45 423.95 591.98 104.97 273 19.5"/><rect class="cls-3" x="497.11" y="389.45" width="99.26" height="13.44"/><path class="cls-3" d="M148.15,281a23.1,23.1,0,1,0-23.1-23.1,23.11,23.11,0,0,0,23.1,23.1"/><path class="cls-3" d="M163.18,317.11,204.93,371a33.92,33.92,0,0,1,23.39-16.46l-28.68-63.6a61.24,61.24,0,0,1-36.46,26.2"/><path class="cls-4" d="M440.49,203.51c18.15-4.87,48.15.59,54.78,20.43,6.76,20.24-8.7,61.42-23.54,74.9"/><path class="cls-3" d="M212.91,388.36l9.48,16.43L232.81,385l22.44.85-9.48-16.43a19,19,0,0,0-32.86,19"/><g class="cls-5"><path class="cls-3" d="M148.51,218.91a38.51,38.51,0,1,1-38.5,38.5A38.54,38.54,0,0,1,148.51,218.91Zm0,92.41a53.91,53.91,0,1,0-53.9-53.91,54,54,0,0,0,53.9,53.91"/></g><polyline class="cls-3" points="144.48 560.77 434.18 639.7 649.79 427.49 507.91 427.49"/><rect class="cls-2" x="259.45" y="466.33" width="142.92" height="79.25"/><path class="cls-2" d="M284.14,446.9h24.64a7.11,7.11,0,0,1,7.11,7.11v18.38a6.81,6.81,0,0,1-6.81,6.81H284.14a6.81,6.81,0,0,1-6.81-6.81V453.71A6.81,6.81,0,0,1,284.14,446.9Z"/><rect class="cls-2" x="345.05" y="446.9" width="38.56" height="32.29" rx="7.12"/><polygon class="cls-3" points="259.45 518.78 259.45 466.33 402.37 466.33 259.45 518.78"/><path class="cls-3" d="M284.14,446.9h24.64a7.11,7.11,0,0,1,7.11,7.11v18.38a6.81,6.81,0,0,1-6.81,6.81H284.14a6.81,6.81,0,0,1-6.81-6.81V453.71A6.81,6.81,0,0,1,284.14,446.9Z"/><path class="cls-3" d="M383.61,467.34l-31.45,11.85a7.11,7.11,0,0,1-7.11-7.11V454a7.11,7.11,0,0,1,7.11-7.12h24.33a7.12,7.12,0,0,1,7.12,7.12Z"/><polygon class="cls-3" points="241.1 466.96 225.34 440 244.65 406.13 283.64 405.92 301.26 436.07 315.89 428.56 293.03 389.45 235.08 389.77 206.38 440.11 226.47 474.47 241.1 466.96"/><circle class="cls-6" cx="418.8" cy="208.38" r="19.07"/><line class="cls-7" x1="569.15" y1="261.18" x2="541.22" y2="237.27"/><line class="cls-8" x1="434.31" y1="200.95" x2="546.74" y2="179.34"/><circle class="cls-6" cx="456.94" cy="315.25" r="19.07"/><polygon class="cls-3" points="572.82 275.72 582.35 346.46 598.17 318.27 629.31 319.35 572.82 275.72"/><line class="cls-8" x1="472.61" y1="306.77" x2="517.93" y2="274.04"/><circle class="cls-6" cx="526.29" cy="268.86" r="12.14"/><circle class="cls-6" cx="558.88" cy="179.34" r="12.14"/><path class="cls-3" d="M88.24,266.57l-37.59,28.1,5,18.5,18.79-14a7.7,7.7,0,0,1,9.22,12.33L59.9,329.19l7.92,29.58L125.05,316A69.64,69.64,0,0,1,88.24,266.57Z"/><path class="cls-9" d="M601.68,141.2H378.87a24,24,0,0,0-24,24V346a24,24,0,0,0,24,24H663"/></svg>