<?xml version="1.0" encoding="utf-8"?>
<!-- Generator: Adobe Illustrator 25.2.1, SVG Export Plug-In . SVG Version: 6.00 Build 0)  -->
<svg version="1.1" id="Layer_1" xmlns="http://www.w3.org/2000/svg" xmlns:xlink="http://www.w3.org/1999/xlink" x="0px" y="0px"
	 viewBox="0 0 434 386" style="enable-background:new 0 0 434 386;" xml:space="preserve">
<style type="text/css">
	.st0{fill:#FFFFFF;stroke:#000000;stroke-width:3;stroke-miterlimit:10;}
	.st1{fill:none;stroke:#000000;stroke-width:3;stroke-miterlimit:10;}
	.st2{fill:none;stroke:#662D91;stroke-width:3;stroke-miterlimit:10;}
	.st3{stroke:#000000;stroke-width:3;stroke-miterlimit:10;}
	.st4{clip-path:url(#SVGID_2_);fill:none;stroke:#000000;stroke-miterlimit:10;}
	.st5{fill:#CEDC00;stroke:#000000;stroke-width:3;stroke-miterlimit:10;}
	.st6{fill:none;stroke:#000000;stroke-width:3;stroke-linecap:round;stroke-miterlimit:10;}
	.st7{fill:none;stroke:#000000;stroke-width:3;stroke-linecap:round;stroke-miterlimit:10;stroke-dasharray:15.2909,10.1939;}
	.st8{fill:#00968F;stroke:#000000;stroke-width:3;stroke-miterlimit:10;}
	.st9{fill:#FF6720;stroke:#000000;stroke-width:3;stroke-miterlimit:10;}
	.st10{clip-path:url(#SVGID_4_);}
	.st11{fill:#FFFFFF;stroke:#000000;stroke-miterlimit:10;}
</style>
<path class="st0" d="M397.15,200.6v-29l-41.11-6.69c-1.4-8.96-3.7-17.61-6.8-25.88l32.37-26.44l-14.5-25.11l-38.96,14.76
	c-5.62-6.94-11.94-13.31-18.84-18.98l14.83-39.12l-25.11-14.5l-26.34,32.24c-8.24-3.17-16.88-5.54-25.82-7.01l-6.72-41.27h-15v68.01
	c0.33,0,0.67-0.01,1-0.01c57.44,0,104,46.56,104,104s-46.56,104-104,104c-0.33,0-0.67-0.01-1-0.01v68.01h14l6.69-41.11
	c8.95-1.4,17.61-3.7,25.87-6.81l26.45,32.38l25.11-14.5l-14.76-38.97c6.94-5.62,13.3-11.93,18.98-18.83l39.12,14.83l14.5-25.11
	l-32.24-26.35c3.17-8.24,5.54-16.87,7.01-25.81L397.15,200.6z"/>
<circle class="st0" cx="225.65" cy="186.1" r="48.5"/>
<circle class="st0" cx="225.65" cy="235.1" r="10"/>
<line class="st1" x1="274.15" y1="121.1" x2="274.15" y2="250.6"/>
<circle class="st3" cx="274.15" cy="123.6" r="7.5"/>
<g>
	<defs>
		<path id="SVGID_1_" d="M398.65,201.1v-29l-41.11-6.69c-1.4-8.96-3.7-17.61-6.8-25.88l32.37-26.44l-14.5-25.11l-38.96,14.76
			c-5.62-6.94-11.94-13.31-18.84-18.98l14.83-39.12l-25.11-14.5l-26.34,32.24c-8.24-3.17-16.88-5.54-25.82-7.01l-6.72-41.27h-29
			l-6.69,41.11C142.61,65.14,94.15,119.96,94.15,186.1c0,65.78,47.93,120.37,110.78,130.73l6.72,41.27h29l6.69-41.11
			c8.95-1.4,17.61-3.7,25.87-6.81l26.45,32.38l25.11-14.5l-14.76-38.97c6.94-5.62,13.3-11.93,18.98-18.83l39.12,14.83l14.5-25.11
			l-32.24-26.35c3.17-8.24,5.54-16.87,7.01-25.81L398.65,201.1z M227.65,290.1c-57.44,0-104-46.56-104-104s46.56-104,104-104
			s104,46.56,104,104S285.08,290.1,227.65,290.1z"/>
	</defs>
	<clipPath id="SVGID_2_">
		<use xlink:href="#SVGID_1_"  style="overflow:visible;"/>
	</clipPath>
	<line class="st4" x1="242.15" y1="-13.4" x2="142.15" y2="369.6"/>
	<line class="st4" x1="254.15" y1="-13.4" x2="154.15" y2="369.6"/>
	<line class="st4" x1="266.15" y1="-13.4" x2="166.15" y2="369.6"/>
	<line class="st4" x1="278.15" y1="-13.4" x2="178.15" y2="369.6"/>
	<line class="st4" x1="290.15" y1="-13.4" x2="190.15" y2="369.6"/>
	<line class="st4" x1="302.15" y1="-13.4" x2="202.15" y2="369.6"/>
	<line class="st4" x1="314.15" y1="-13.4" x2="214.15" y2="369.6"/>
	<line class="st4" x1="326.15" y1="-13.4" x2="226.15" y2="369.6"/>
	<line class="st4" x1="338.15" y1="-13.4" x2="238.15" y2="369.6"/>
	<line class="st4" x1="350.15" y1="-13.4" x2="250.15" y2="369.6"/>
	<line class="st4" x1="362.15" y1="-13.4" x2="262.15" y2="369.6"/>
	<line class="st4" x1="374.15" y1="-13.4" x2="274.15" y2="369.6"/>
	<line class="st4" x1="386.15" y1="-13.4" x2="286.15" y2="369.6"/>
	<line class="st4" x1="398.15" y1="-13.4" x2="298.15" y2="369.6"/>
	<line class="st4" x1="410.15" y1="-13.4" x2="310.15" y2="369.6"/>
	<line class="st4" x1="422.15" y1="-13.4" x2="322.15" y2="369.6"/>
	<line class="st4" x1="434.15" y1="-13.4" x2="334.15" y2="369.6"/>
	<line class="st4" x1="446.15" y1="-13.4" x2="346.15" y2="369.6"/>
</g>
<path class="st5" d="M89.19,58.1l137.46,126.16L90.69,313.06c0,0-57.04-42.19-57.04-128.8C33.65,98.77,89.19,58.1,89.19,58.1z"/>
<g>
	<g>
		<path class="st6" d="M191.45,220.98c-1.8-1.8-3.43-3.7-4.88-5.69"/>
		<path class="st7" d="M181.45,206.48c-6.3-14.11-5.53-30.61,2.32-44.13"/>
		<path class="st6" d="M186.57,158.08c1.46-1.99,3.08-3.89,4.88-5.69"/>
	</g>
</g>
<path class="st8" d="M225.65,255.6c-17.21,0-29.36-3.64-41.5-14l-77,72c12.8,12.32,57.51,43.81,120,44l-0.38-102.03
	C226.39,255.58,226.02,255.6,225.65,255.6z"/>
<path class="st9" d="M227.14,116.6C227.14,116.6,227.15,116.6,227.14,116.6l0-103c-64.32,1.1-108.03,35.1-119.25,46.5l77.75,71.5
	C197.85,120.96,209.67,116.6,227.14,116.6z"/>
<circle class="st0" cx="225.65" cy="138.1" r="10"/>
<circle class="st0" cx="273.65" cy="186.1" r="10"/>
<circle class="st3" cx="273.15" cy="251.6" r="7.5"/>
<g>
	<defs>
		<path id="SVGID_3_" d="M130.38,250.59l-27.91-48.33l-9.04,15.66c-8.21-8.68-13.09-20.01-13.67-32.17
			c-0.6-12.57,3.44-24.64,11.25-34.19l11.24,12.42l17.11-53.13L64.8,122.6l12.68,14.01c-12.2,13.67-18.58,31.47-17.7,50.08
			c0.9,18.98,9.33,36.52,23.35,49.06l-8.57,14.84L130.38,250.59z"/>
	</defs>
	<use xlink:href="#SVGID_3_"  style="overflow:visible;fill:#FFFFFF;"/>
	<clipPath id="SVGID_4_">
		<use xlink:href="#SVGID_3_"  style="overflow:visible;"/>
	</clipPath>
	<g class="st10">
		<line class="st11" x1="88.45" y1="84.77" x2="35.21" y2="288.68"/>
		<line class="st11" x1="98.14" y1="88.81" x2="44.9" y2="292.72"/>
		<line class="st11" x1="107.84" y1="92.85" x2="54.6" y2="296.76"/>
		<line class="st11" x1="117.54" y1="96.89" x2="64.3" y2="300.8"/>
		<line class="st11" x1="127.23" y1="100.93" x2="73.99" y2="304.84"/>
		<line class="st11" x1="136.93" y1="104.97" x2="83.69" y2="308.88"/>
		<line class="st11" x1="146.63" y1="109.01" x2="93.38" y2="312.92"/>
		<line class="st11" x1="156.32" y1="113.05" x2="103.08" y2="316.96"/>
	</g>
	<use xlink:href="#SVGID_3_"  style="overflow:visible;fill:none;stroke:#000000;stroke-width:3;stroke-miterlimit:10;"/>
</g>
</svg>
