<svg id="Layer_1" data-name="Layer 1" xmlns="http://www.w3.org/2000/svg" xmlns:xlink="http://www.w3.org/1999/xlink" viewBox="0 0 285.88 317.07"><defs><style>.cls-1,.cls-10,.cls-5,.cls-9{fill:none;}.cls-2{clip-path:url(#clip-path);}.cls-3,.cls-6,.cls-7{fill:#fff;}.cls-10,.cls-3,.cls-4,.cls-5,.cls-6,.cls-7,.cls-9{stroke:#000;stroke-miterlimit:10;}.cls-4{fill:#cedc00;}.cls-10,.cls-4,.cls-7,.cls-9{stroke-width:3px;}.cls-10,.cls-5,.cls-6{stroke-linecap:round;}.cls-8{fill:#00968f;}</style><clipPath id="clip-path"><rect class="cls-1" x="-12.62" y="71.64" width="211.44" height="197"/></clipPath></defs><g class="cls-2"><line class="cls-3" x1="36.81" y1="123.91" x2="125.97" y2="361.2"/><line class="cls-3" x1="54.81" y1="116.91" x2="143.97" y2="354.2"/><line class="cls-3" x1="72.81" y1="109.91" x2="161.97" y2="347.2"/><line class="cls-3" x1="90.81" y1="102.91" x2="179.97" y2="340.2"/><line class="cls-3" x1="108.81" y1="95.91" x2="197.97" y2="333.2"/><line class="cls-3" x1="30.14" y1="225.13" x2="192.74" y2="159.64"/><line class="cls-3" x1="24.14" y1="207.13" x2="186.74" y2="141.64"/><line class="cls-3" x1="18.14" y1="189.13" x2="180.74" y2="123.64"/><line class="cls-3" x1="12.14" y1="171.13" x2="174.74" y2="105.64"/><line class="cls-3" x1="6.14" y1="153.13" x2="168.74" y2="87.64"/></g><rect class="cls-4" x="27.88" y="204.14" width="256" height="35" transform="translate(-74.27 78.63) rotate(-23.02)"/><line class="cls-5" x1="40.38" y1="253.64" x2="46.36" y2="268.18"/><line class="cls-5" x1="49.38" y1="249.64" x2="55.57" y2="264.27"/><line class="cls-5" x1="58.38" y1="245.64" x2="64.77" y2="260.36"/><line class="cls-5" x1="67.38" y1="241.64" x2="73.97" y2="256.45"/><line class="cls-5" x1="77.38" y1="238.64" x2="83.18" y2="252.54"/><line class="cls-5" x1="86.38" y1="234.64" x2="92.38" y2="248.63"/><line class="cls-6" x1="95.38" y1="230.64" x2="101.58" y2="244.72"/><line class="cls-6" x1="104.38" y1="225.64" x2="110.79" y2="240.8"/><line class="cls-6" x1="113.38" y1="221.64" x2="119.99" y2="236.89"/><line class="cls-6" x1="123.38" y1="218.64" x2="129.19" y2="232.98"/><line class="cls-6" x1="132.38" y1="214.64" x2="138.4" y2="229.07"/><line class="cls-6" x1="141.38" y1="210.64" x2="147.6" y2="225.16"/><line class="cls-6" x1="150.38" y1="206.64" x2="156.8" y2="221.25"/><line class="cls-6" x1="160.38" y1="203.64" x2="166.01" y2="217.34"/><line class="cls-6" x1="169.38" y1="199.64" x2="175.21" y2="213.43"/><line class="cls-6" x1="178.38" y1="195.64" x2="184.41" y2="209.51"/><line class="cls-6" x1="187.38" y1="191.64" x2="193.62" y2="205.6"/><line class="cls-6" x1="196.38" y1="186.64" x2="202.82" y2="201.69"/><line class="cls-6" x1="206.38" y1="184.64" x2="212.02" y2="197.78"/><line class="cls-6" x1="215.38" y1="180.64" x2="221.23" y2="193.87"/><line class="cls-6" x1="224.38" y1="175.64" x2="230.43" y2="189.96"/><line class="cls-6" x1="233.38" y1="171.64" x2="239.63" y2="186.05"/><line class="cls-6" x1="243.38" y1="168.64" x2="248.84" y2="182.14"/><line class="cls-6" x1="252.38" y1="164.64" x2="258.04" y2="178.22"/><line class="cls-6" x1="261.38" y1="160.64" x2="267.24" y2="174.31"/><path class="cls-7" d="M133.82,200.31,113.93,214.9a1.19,1.19,0,0,1-1.85-.66L106,190.34l.1-.28L160.46,38.14l27.85,10-53,148.13Z"/><path class="cls-8" d="M106,190.44a26.79,26.79,0,0,1,27.74,9.93L113.93,214.9Z"/><path class="cls-9" d="M133.82,200.31,113.93,214.9a1.19,1.19,0,0,1-1.85-.66L106,190.34l.1-.28L160.46,38.14l27.85,10-53,148.13Z"/><path class="cls-10" d="M112.08,214.24,29.6,248.63l-19.36-49L52.47,182.8h0A134.9,134.9,0,0,1,140.41,12.32l10-3.13"/></svg>