<svg id="Layer_1" data-name="Layer 1" xmlns="http://www.w3.org/2000/svg" viewBox="0 0 285.88 317.07"><defs><style>.cls-1{fill:#fff;}.cls-1,.cls-3{stroke:#000;stroke-miterlimit:10;stroke-width:3px;}.cls-2{fill:#00968f;}.cls-3{fill:none;stroke-linecap:round;}.cls-4{fill:#ff6720;}</style></defs><path class="cls-1" d="M180.89,145.74V81.49a10.09,10.09,0,0,0-1.4-5.11l-32.06-54a4.7,4.7,0,0,0-8.08,0l-32.06,54a10,10,0,0,0-1.4,5.11v64.25l-36.84,91H217.72Z"/><line class="cls-1" x1="127.94" y1="40.27" x2="157.84" y2="40.27"/><circle class="cls-2" cx="142.39" cy="108.24" r="24"/><path class="cls-3" d="M157.89,105.74a17,17,0,0,1-17,17"/><circle class="cls-2" cx="142.39" cy="179.24" r="24"/><path class="cls-3" d="M157.89,176.74a17,17,0,0,1-17,17"/><line class="cls-1" x1="180.89" y1="145.74" x2="180.89" y2="236.74"/><line class="cls-1" x1="105.89" y1="145.74" x2="105.89" y2="236.74"/><polygon class="cls-4" points="120.74 246.75 105.59 299.75 120.39 287.25 135.89 299.75 120.74 246.75"/><polygon class="cls-4" points="166.74 246.75 151.59 299.75 166.39 287.25 181.89 299.75 166.74 246.75"/></svg>