<svg id="Layer_1" data-name="Layer 1" xmlns="http://www.w3.org/2000/svg" viewBox="0 0 318.88 325.07"><defs><style>.cls-1,.cls-4{fill:#fff;}.cls-1,.cls-2,.cls-3{stroke:#000;stroke-miterlimit:10;stroke-width:3px;}.cls-1,.cls-3{stroke-linecap:round;}.cls-2{fill:#cedc00;}.cls-3{fill:none;}.cls-5{fill:#00968f;}</style></defs><rect class="cls-1" x="40.44" y="33.91" width="238" height="131"/><rect class="cls-1" x="63.44" y="55.91" width="77" height="20" rx="10"/><rect class="cls-1" x="63.44" y="87.91" width="77" height="20" rx="10"/><rect class="cls-1" x="63.44" y="119.91" width="77" height="20" rx="10"/><circle class="cls-1" cx="215.94" cy="99.41" r="42.5"/><polyline class="cls-1" points="208.97 141.33 215.94 99.41 247.05 70.47"/><path class="cls-2" d="M215.94,56.91a42.31,42.31,0,0,0-17.79,3.9l17.79,38.6,4.9-4.56,26.82-23.72A42.4,42.4,0,0,0,215.94,56.91Z"/><polyline class="cls-3" points="131.94 65.91 173.44 65.91 219.39 78.16"/><path class="cls-4" d="M62,284.53a14.33,14.33,0,0,1-9.26-2.92c-11.58-9.35-4.12-37.9,16.65-63.65,15.76-19.54,35.63-32.67,49.43-32.67a14.38,14.38,0,0,1,9.26,2.91c5.44,4.39,6.81,13.32,3.86,25.14-3.05,12.22-10.33,25.9-20.51,38.52C95.7,271.4,75.83,284.53,62,284.53Z"/><path d="M118.85,183.79v3h0a12.89,12.89,0,0,1,8.31,2.58c4.9,3.95,6.12,12.55,3.36,23.61-3,12-10.19,25.48-20.23,37.94C94.8,270.12,75.41,283,62,283a12.84,12.84,0,0,1-8.31-2.59c-4.9-3.94-6.12-12.55-3.36-23.61,3-12,10.19-25.48,20.23-37.93,15.49-19.21,34.88-32.11,48.26-32.11v-3m0,0c-13.9,0-34,12.68-50.59,33.23-21.33,26.43-28.68,55.88-16.43,65.76A15.88,15.88,0,0,0,62,286c13.9,0,34-12.69,50.59-33.23C134,226.36,141.3,196.92,129.05,187a15.8,15.8,0,0,0-10.2-3.25Z"/><path class="cls-4" d="M104.24,232.78a15,15,0,1,1,11.69-5.58A14.87,14.87,0,0,1,104.24,232.78Z"/><path d="M104.26,201.28v3h0a13.5,13.5,0,1,1-10.52,5,13.41,13.41,0,0,1,10.52-5v-3m0,0a16.5,16.5,0,1,0,10.35,3.66,16.46,16.46,0,0,0-10.35-3.66Z"/><path class="cls-4" d="M76.64,267a15,15,0,1,1,9.13-3.1A14.91,14.91,0,0,1,76.64,267Z"/><path d="M76.62,238.53h0a13.51,13.51,0,1,1-8.22,2.8,13.42,13.42,0,0,1,8.22-2.8m0-3A16.5,16.5,0,1,0,89.71,242a16.43,16.43,0,0,0-13.09-6.45Z"/><polygon class="cls-5" points="111.86 222.48 105.75 206.65 95.09 219.86 111.86 222.48"/><polygon class="cls-5" points="68.7 246.03 74.81 261.87 85.47 248.66 68.7 246.03"/></svg>