<svg id="Layer_1" data-name="Layer 1" xmlns="http://www.w3.org/2000/svg" viewBox="0 0 285.88 317.07"><defs><style>.cls-1,.cls-2,.cls-6{fill:#fff;}.cls-2,.cls-3,.cls-5,.cls-6,.cls-7,.cls-8{stroke:#000;stroke-miterlimit:10;}.cls-2,.cls-3,.cls-7{stroke-linecap:round;}.cls-2,.cls-3,.cls-5,.cls-6{stroke-width:3px;}.cls-3,.cls-7,.cls-8{fill:none;}.cls-4{fill:#ff6720;}.cls-5{fill:#cedc00;}</style></defs><path class="cls-1" d="M142.94,137.83c57.85,0,107.31,14.19,127.29,34.24h9.39v-41H6.62v41h9C35.64,152,85.09,137.83,142.94,137.83Z"/><path class="cls-2" d="M279.68,141.32c0-.16,0-.31,0-.47,0-29.83-61.22-54-136.75-54S6.19,111,6.19,140.85"/><path class="cls-3" d="M279.68,192.32c0-.16,0-.31,0-.47,0-29.83-61.22-54-136.75-54S6.19,162,6.19,191.85"/><rect class="cls-1" x="135.19" y="161.33" width="17" height="13"/><path d="M150.69,162.83v10h-14v-10h14m3-3h-20v16h20v-16Z"/><path class="cls-4" d="M89.19,152.83h109s-9.32-57.73-19.5-70.05c-16.5-20-56.17-22.05-71.33,0S89.19,152.83,89.19,152.83Z"/><circle class="cls-1" cx="143.19" cy="127.33" r="36"/><path d="M143.19,92.83a34.5,34.5,0,1,1-34.5,34.5,34.54,34.54,0,0,1,34.5-34.5m0-3a37.5,37.5,0,1,0,37.5,37.5,37.5,37.5,0,0,0-37.5-37.5Z"/><path class="cls-4" d="M143.19,88.33a37.5,37.5,0,0,0-37.5,37.5h37.5l8-18.52,7.5,18.52h22A37.5,37.5,0,0,0,143.19,88.33Z"/><path class="cls-5" d="M192.69,187.4c-8-11.57-31.4-15.57-38-15.57h-22c-6.6,0-30,4-38,15.57-8.18,11.82-7,57.06-7,57.06,0,5.7,5.4,10.37,12,10.37h88c6.6,0,12-4.67,12-10.37C199.69,244.46,200.87,199.22,192.69,187.4Z"/><path class="cls-2" d="M279.68,191.32c-.64,29.61-61.61,53.54-136.74,53.54S6.85,220.93,6.21,191.32v-50c.64,29.61,61.6,53.54,136.73,53.54S279,170.93,279.68,141.32Z"/><polyline class="cls-2" points="159.69 232.33 144.79 206.53 129.89 232.33"/><circle cx="144.93" cy="206.33" r="6.76"/><polygon class="cls-6" points="40.62 213.33 65.19 222.33 65.19 204.71 52.97 192.83 40.62 198.33 40.62 213.33"/><circle cx="233.23" cy="201.85" r="5.31"/><circle cx="246.51" cy="216.66" r="4.18"/><circle cx="213.11" cy="203.75" r="3.42"/><circle cx="240.82" cy="185.91" r="2.28"/><circle cx="249.17" cy="198.82" r="1.52"/><line class="cls-7" x1="233.23" y1="200.33" x2="240.82" y2="185.91"/><polyline class="cls-7" points="213.11 203.75 233.23 201.85 246.51 216.66"/><line class="cls-7" x1="236.19" y1="202.33" x2="249.17" y2="198.82"/><path class="cls-6" d="M238.5,116.82h-.06a8.22,8.22,0,0,0,.06-1,7.69,7.69,0,0,0-15-2.48h-.17a10.18,10.18,0,1,0,4.72,19.19v10.34H235V132.42a8.06,8.06,0,0,0,3.47.78,8.19,8.19,0,0,0,0-16.38Z"/><line class="cls-8" x1="31.95" y1="128.07" x2="37.67" y2="134.16"/><line class="cls-8" x1="39.36" y1="135.42" x2="48.71" y2="118.65"/><line class="cls-8" x1="48.6" y1="118.54" x2="53.19" y2="128.07"/><circle cx="76.53" cy="115.19" r="3.35"/><line class="cls-8" x1="53.19" y1="128.65" x2="75.93" y2="115.78"/><circle cx="37.86" cy="134.81" r="3.74"/><circle cx="48.25" cy="118.19" r="3.35"/><circle cx="53.25" cy="128.19" r="3.35"/><circle cx="31.25" cy="127.19" r="3.35"/></svg>