<svg id="Layer_1" data-name="Layer 1" xmlns="http://www.w3.org/2000/svg" xmlns:xlink="http://www.w3.org/1999/xlink" viewBox="0 0 318.88 325.07"><defs><style>.cls-1,.cls-3,.cls-4,.cls-5{fill:none;}.cls-2{clip-path:url(#clip-path);}.cls-3{stroke:#ff6720;}.cls-3,.cls-4,.cls-5,.cls-6{stroke-miterlimit:10;stroke-width:3px;}.cls-4,.cls-5,.cls-6{stroke:#000;}.cls-4{stroke-linecap:round;}.cls-6{fill:#00968f;}.cls-7{font-size:34px;font-family:HelveticaNeue-CondensedBlack, Helvetica Neue;font-weight:800;}</style><clipPath id="clip-path"><path class="cls-1" d="M120.8,228.39a1.85,1.85,0,0,0-2.43-.91c-6.85,3-33,13.07-43.34-5.78-12.87-23.54,1-42,20-45,0,0,13-12.31,22-16s19.33,5.56,19.33,5.56,4.7-14,18.67-16.56,21.73,11.72,21.73,11.72,11.77-6.89,19.27-2.72,15,11,16,22.58c0,0,38.68-15.5,37,32.42,0,0-14.67,44.37-52,14,0,0-13.77-2.12-20-10,0,0,14.23,29.28,8,41s-14,14-14,14,15-17-7.5-20.5c0,0-29.45-5.25-33.73-9.12C126.5,240.08,122.46,231.93,120.8,228.39Z"/></clipPath></defs><g class="cls-2"><line class="cls-3" x1="14.12" y1="329.08" x2="154.63" y2="58.37"/><line class="cls-3" x1="27.12" y1="334.08" x2="167.63" y2="63.37"/><line class="cls-3" x1="40.12" y1="339.08" x2="180.63" y2="68.37"/><line class="cls-3" x1="53.12" y1="344.08" x2="193.63" y2="73.37"/><line class="cls-3" x1="66.12" y1="349.08" x2="206.63" y2="78.37"/><line class="cls-3" x1="79.12" y1="354.08" x2="219.63" y2="83.37"/><line class="cls-3" x1="92.12" y1="359.08" x2="232.63" y2="88.37"/><line class="cls-3" x1="105.12" y1="364.08" x2="245.63" y2="93.37"/><line class="cls-3" x1="118.12" y1="369.08" x2="258.63" y2="98.37"/><line class="cls-3" x1="131.12" y1="374.08" x2="271.63" y2="103.37"/><line class="cls-3" x1="144.12" y1="379.08" x2="284.63" y2="108.37"/><line class="cls-3" x1="164.92" y1="366.7" x2="305.43" y2="95.99"/></g><path class="cls-4" d="M159.87,205.62a23.77,23.77,0,0,0-40.66,15.18c-.8,12.87,8.77,22.87,21,25.14,12.49,2.32,12.15,2.13,20,3.4,11.65,1.87,22.91,9.18,5.4,25"/><path class="cls-4" d="M119.54,226.43A29.18,29.18,0,1,1,99.7,175.84"/><path class="cls-4" d="M99.33,179.08a23.24,23.24,0,0,1,45-2.79"/><path class="cls-4" d="M173.37,161.32a25.4,25.4,0,0,1,36.78,30.93"/><path class="cls-4" d="M211.33,179.73a29.72,29.72,0,1,1-13.69,47.63"/><path class="cls-4" d="M154.2,186.45a21.62,21.62,0,0,1,35.85,0"/><path class="cls-4" d="M214.63,217.47a23.24,23.24,0,0,1-38.19.5"/><path class="cls-4" d="M136,164.62a23.24,23.24,0,0,1,40.4-4.83"/><polyline class="cls-5" points="189.92 158.64 220.36 128.21 248.03 128.21"/><line class="cls-5" x1="156.15" y1="150.12" x2="156.15" y2="120.42"/><polyline class="cls-5" points="118.93 160.31 102.82 144.21 66.03 144.21"/><polyline class="cls-5" points="250.01 208.07 283.53 196.21 291.53 173.21"/><polyline class="cls-5" points="70.52 205.02 52.34 223.2 28.92 223.2"/><circle class="cls-6" cx="155.91" cy="112.07" r="7.57"/><text class="cls-7" transform="translate(17.17 195.95)">S</text><text class="cls-7" transform="translate(53.25 113.88)">T</text><text class="cls-7" transform="translate(148.22 77.62)">E</text><text class="cls-7" transform="translate(246.08 94.2)">A</text><text class="cls-7" transform="translate(281.09 134.91)">M</text><circle class="cls-6" cx="60.39" cy="143.82" r="7.57"/><circle class="cls-6" cx="25.12" cy="223.4" r="7.57"/><circle class="cls-6" cx="253.32" cy="127.84" r="7.57"/><circle class="cls-6" cx="291.32" cy="166.11" r="7.57"/></svg>