<svg id="Layer_1" data-name="Layer 1" xmlns="http://www.w3.org/2000/svg" viewBox="0 0 318.88 325.07"><defs><style>.cls-1,.cls-2{fill:#fff;}.cls-1,.cls-4{stroke:#000;stroke-miterlimit:10;stroke-width:3px;}.cls-3{fill:#00968f;}.cls-4{fill:none;stroke-linecap:round;}.cls-5{fill:#ff6720;}</style></defs><polygon class="cls-1" points="154.39 277.53 13.39 277.53 193.39 189.03 306.39 189.03 154.39 277.53"/><rect class="cls-2" x="105.39" y="178.53" width="3" height="41"/><path d="M106.89,180v0m3-3h-6v44h6V177Z"/><rect class="cls-2" x="93.39" y="169.53" width="27" height="16"/><path d="M118.89,171v13h-24V171h24m3-3h-30v19h30V168Z"/><rect class="cls-2" x="82.39" y="102.53" width="49" height="69"/><path d="M129.89,104v66h-46V104h46m3-3h-52v72h52V101Z"/><rect class="cls-2" x="36.39" y="47.53" width="139" height="58"/><path d="M173.89,49v55h-136V49h136m3-3h-142v61h142V46Z"/><circle class="cls-3" cx="70.39" cy="75.53" r="17.5"/><circle class="cls-3" cx="140.39" cy="75.53" r="17.5"/><line class="cls-4" x1="173.39" y1="251.03" x2="107.89" y2="251.03"/><ellipse class="cls-5" cx="105.89" cy="251.03" rx="10" ry="7"/></svg>