<svg height="512" viewBox="0 0 64 64" width="512" xmlns="http://www.w3.org/2000/svg"><g id="Layer_32" data-name="Layer 32"><g fill="#f2b0ae"><path d="m62 23-30 15-30-15 30-15z"/><path d="m32 45v4l-30-15v-4z"/><path d="m62 30v4l-30 15v-4z"/></g><path d="m62.447 29.105-5.211-2.605 5.211-2.6a1 1 0 0 0 0-1.79l-30-15a1 1 0 0 0 -.894 0l-30 15a1 1 0 0 0 0 1.79l5.211 2.6-5.211 2.605a1 1 0 0 0 -.553.895v4a1 1 0 0 0 .553.9l5.211 2.6-5.211 2.6a1 1 0 0 0 0 1.79l30 15a1 1 0 0 0 .894 0l30-15a1 1 0 0 0 0-1.79l-5.211-2.6 5.211-2.6a1 1 0 0 0 .553-.9v-4a1 1 0 0 0 -.553-.895zm-30.447-19.987 27.764 13.882-27.764 13.882-27.764-13.882zm-.447 29.782a1 1 0 0 0 .894 0l22.553-11.282 4.764 2.382-27.764 13.882-27.764-13.882 4.764-2.382zm-28.553-7.282 28 14v1.764l-28-14zm56.764 9.382-27.764 13.882-27.764-13.882 4.764-2.382 22.553 11.282a1 1 0 0 0 .894 0l22.553-11.282zm-26.764 6.382v-1.764l28-14v1.764z" fill="#b1404a"/></g><g id="Layer_1" data-name="Layer 1"><text font-family="MyriadPro-Regular, Myriad Pro" font-size="10" transform="translate(5.92 -22.9)"><tspan letter-spacing="-.00698242188em">HY</tspan><tspan x="11.79" y="0">D</tspan><tspan letter-spacing=".00297851563em" x="18.45" y="0">R</tspan><tspan x="23.859" y="0">O</tspan><tspan letter-spacing="-.083984375em" x="30.75" y="0">L</tspan><tspan letter-spacing="-.01298828125em" x="34.629" y="0">Y</tspan><tspan x="39.909" y="0">SIS</tspan><tspan x=".985" y="12">RESIS</tspan><tspan letter-spacing="-.075em" x="23.535" y="12">T</tspan><tspan x="27.755" y="12">ANCE</tspan></text></g></svg>