<svg id="Слой_1" data-name="Слой 1" xmlns="http://www.w3.org/2000/svg" xmlns:xlink="http://www.w3.org/1999/xlink" viewBox="0 0 394 370"><defs><style>.cls-1,.cls-3,.cls-6,.cls-8,.cls-9{fill:none;}.cls-10,.cls-2{fill:#fff;}.cls-10,.cls-11,.cls-12,.cls-2,.cls-3,.cls-4,.cls-6,.cls-7,.cls-8,.cls-9{stroke:#000;stroke-miterlimit:10;}.cls-11,.cls-12,.cls-2,.cls-3,.cls-4,.cls-7,.cls-8,.cls-9{stroke-width:3px;}.cls-5{clip-path:url(#clip-path);}.cls-7{fill:#cedc00;}.cls-8,.cls-9{stroke-linecap:round;}.cls-9{stroke-dasharray:16.05 8.02;}.cls-11{fill:#00968f;}.cls-12{fill:#ff6720;}</style><clipPath id="clip-path"><path class="cls-1" d="M379,203V174l-41.11-6.69a131.51,131.51,0,0,0-6.8-25.88L363.46,115,349,89.88l-39,14.76a132.55,132.55,0,0,0-18.84-19L306,46.54,280.88,32,254.54,64.28a131.15,131.15,0,0,0-25.82-7L222,16H193l-6.69,41.11a132.52,132.52,0,0,0-1,261.62L192,360h29l6.69-41.11a130.74,130.74,0,0,0,25.87-6.81L280,344.46,305.12,330l-14.76-39a133,133,0,0,0,19-18.83L348.46,287,363,261.88l-32.24-26.35a131.05,131.05,0,0,0,7-25.81ZM208,292A104,104,0,1,1,312,188,104,104,0,0,1,208,292Z"/></clipPath></defs><path class="cls-2" d="M377.5,202.5v-29l-41.11-6.69a131.51,131.51,0,0,0-6.8-25.88L362,114.49l-14.5-25.11-39,14.76a132.55,132.55,0,0,0-18.84-19L304.49,46l-25.11-14.5L253,63.78a131.15,131.15,0,0,0-25.82-7L220.5,15.5h-15v68h1a104,104,0,0,1,0,208h-1v68h14l6.69-41.11a130.74,130.74,0,0,0,25.87-6.81L278.51,344l25.11-14.5-14.76-39a133,133,0,0,0,19-18.83L347,286.49l14.5-25.11L329.22,235a131.05,131.05,0,0,0,7-25.81Z"/><circle class="cls-2" cx="206" cy="188" r="48.5"/><circle class="cls-2" cx="206" cy="237" r="9.5"/><line class="cls-3" x1="254.5" y1="123" x2="254.5" y2="252.5"/><circle class="cls-4" cx="254.5" cy="125.5" r="6"/><g class="cls-5"><line class="cls-6" x1="222.5" y1="-11.5" x2="122.5" y2="371.5"/><line class="cls-6" x1="234.5" y1="-11.5" x2="134.5" y2="371.5"/><line class="cls-6" x1="246.5" y1="-11.5" x2="146.5" y2="371.5"/><line class="cls-6" x1="258.5" y1="-11.5" x2="158.5" y2="371.5"/><line class="cls-6" x1="270.5" y1="-11.5" x2="170.5" y2="371.5"/><line class="cls-6" x1="282.5" y1="-11.5" x2="182.5" y2="371.5"/><line class="cls-6" x1="294.5" y1="-11.5" x2="194.5" y2="371.5"/><line class="cls-6" x1="306.5" y1="-11.5" x2="206.5" y2="371.5"/><line class="cls-6" x1="318.5" y1="-11.5" x2="218.5" y2="371.5"/><line class="cls-6" x1="330.5" y1="-11.5" x2="230.5" y2="371.5"/><line class="cls-6" x1="342.5" y1="-11.5" x2="242.5" y2="371.5"/><line class="cls-6" x1="354.5" y1="-11.5" x2="254.5" y2="371.5"/><line class="cls-6" x1="366.5" y1="-11.5" x2="266.5" y2="371.5"/><line class="cls-6" x1="378.5" y1="-11.5" x2="278.5" y2="371.5"/><line class="cls-6" x1="390.5" y1="-11.5" x2="290.5" y2="371.5"/><line class="cls-6" x1="402.5" y1="-11.5" x2="302.5" y2="371.5"/><line class="cls-6" x1="414.5" y1="-11.5" x2="314.5" y2="371.5"/><line class="cls-6" x1="426.5" y1="-11.5" x2="326.5" y2="371.5"/></g><path class="cls-7" d="M69.54,63.54,207,188,71,315S14,273.35,14,188C14,103.65,69.54,63.54,69.54,63.54Z"/><path class="cls-8" d="M171.8,222.87a47.86,47.86,0,0,1-6.3-7.74"/><path class="cls-9" d="M161.68,208.08a48.62,48.62,0,0,1,1.75-42.6"/><path class="cls-8" d="M165.5,162a48.37,48.37,0,0,1,6.3-7.75"/><path class="cls-10" d="M79.58,266.49l-.21.14-.15-.15Z"/><path class="cls-10" d="M105.5,244.5l-.1.15v-.24Z"/><path class="cls-11" d="M206,257.5c-17.21,0-29.36-3.64-41.5-14l-77,72c12.8,12.32,56.51,46.31,119,46.49l.62-104.52C206.75,257.48,206.38,257.5,206,257.5Z"/><path class="cls-12" d="M206,118.5h0l-1.5-107C140.18,12.6,98,50.6,86.75,62l77.75,71.5C176.71,122.85,188.53,118.5,206,118.5Z"/><path class="cls-10" d="M95.22,232.77l11.22-10.27-1,21.91v.24l-1.08,22.86-24.74-1h-.36l-19.93-.82,10.64-9.74c-30.71-39.7-27.71-92.66,4.57-132.42L63.39,112.39l45.1.1.1,45.1L98.9,147.9C79.23,170.57,73.25,203,95.22,232.77Z"/><circle class="cls-2" cx="206" cy="140" r="9.5"/><circle class="cls-2" cx="254" cy="188" r="9.5"/><circle class="cls-4" cx="253.5" cy="253.5" r="6"/></svg>