<svg id="Capa_1" enable-background="new 0 0 512 512" height="512" viewBox="0 0 512 512" width="512" xmlns="http://www.w3.org/2000/svg"><g><g><g><path d="m118.618 169.126h96.976v96.976h-96.976z" fill="#ecc373"/></g><g><path d="m191.35 169.126h24.244v96.976h-24.244z" fill="#dab46b"/></g><g><path d="m150.943 169.126h32.325v32.325h-32.325z" fill="#f4e2c1"/></g></g><g><g><path d="m296.406 169.126h96.976v96.976h-96.976z" fill="#ecc373" transform="matrix(-1 0 0 -1 689.789 435.228)"/></g><g><path d="m369.138 169.126h24.244v96.976h-24.244z" fill="#dab46b"/></g><g><path d="m328.732 169.126h32.325v32.325h-32.325z" fill="#f4e2c1" transform="matrix(-1 0 0 -1 689.789 370.577)"/></g></g><g><path d="m78.211 266.102h355.577v32.325h-355.577z" fill="#dddaec"/></g><g><path d="m78.211 266.102h24.244v32.325h-24.244z" fill="#d0cee7"/></g><g><path d="m409.545 266.102h24.244v32.325h-24.244z" fill="#d0cee7"/></g><g><path d="m78.211 104.476h355.577v32.325h-355.577z" fill="#dddaec"/></g><g><path d="m78.211 104.476h24.244v32.325h-24.244z" fill="#d0cee7"/></g><g><path d="m409.545 104.476h24.244v32.325h-24.244z" fill="#d0cee7"/></g><g><path d="m45.886 460.053h32.325v44.447h-32.325z" fill="#407093"/></g><g><path d="m433.789 460.053h32.325v44.447h-32.325z" fill="#407093"/></g><g><path d="m45.886 7.5h32.325v452.553h-32.325z" fill="#c17d4f"/></g><g><path d="m433.789 7.5h32.325v452.553h-32.325z" fill="#c17d4f"/></g><g><g><path d="m110.537 330.752h96.976v96.976h-96.976z" fill="#ecc373"/></g><g><path d="m183.268 330.752h24.244v96.976h-24.244z" fill="#dab46b"/></g><g><path d="m142.862 330.752h32.325v32.325h-32.325z" fill="#f4e2c1"/></g></g><g><g><path d="m304.488 330.752h96.976v96.976h-96.976z" fill="#ecc373"/></g><g><path d="m377.22 330.752h24.244v96.976h-24.244z" fill="#dab46b"/></g><g><path d="m336.813 330.752h32.325v32.325h-32.325z" fill="#f4e2c1"/></g></g><g><g><path d="m207.512 330.752h96.976v96.976h-96.976z" fill="#ecc373" transform="matrix(-1 0 0 -1 512 758.48)"/></g><g><path d="m280.244 330.752h24.244v96.976h-24.244z" fill="#dab46b"/></g><g><path d="m239.837 330.752h32.325v32.325h-32.325z" fill="#f4e2c1" transform="matrix(-1 0 0 -1 512 693.829)"/></g></g><g><g><path d="m110.537 7.5h96.976v96.976h-96.976z" fill="#ecc373"/></g><g><path d="m183.268 7.5h24.244v96.976h-24.244z" fill="#dab46b"/></g><g><path d="m142.862 7.5h32.325v32.325h-32.325z" fill="#f4e2c1"/></g></g><g><g><path d="m304.488 7.5h96.976v96.976h-96.976z" fill="#ecc373"/></g><g><path d="m377.22 7.5h24.244v96.976h-24.244z" fill="#dab46b"/></g><g><path d="m336.813 7.5h32.325v32.325h-32.325z" fill="#f4e2c1"/></g></g><g><g><path d="m207.512 7.5h96.976v96.976h-96.976z" fill="#ecc373" transform="matrix(-1 0 0 -1 512 111.976)"/></g><g><path d="m280.244 7.5h24.244v96.976h-24.244z" fill="#dab46b"/></g><g><path d="m239.837 7.5h32.325v32.325h-32.325z" fill="#f4e2c1" transform="matrix(-1 0 0 -1 512 47.325)"/></g></g><g><path d="m78.211 427.728h355.577v32.325h-355.577z" fill="#dddaec"/></g><g><path d="m409.545 427.728h24.244v32.325h-24.244z" fill="#d0cee7"/></g><g><path d="m78.211 427.728h24.244v32.325h-24.244z" fill="#d0cee7"/></g><path d="m473.61 270.79c0-4.142-3.357-7.5-7.5-7.5s-7.5 3.358-7.5 7.5v181.76h-17.32v-437.55h17.32v220.79c0 4.142 3.357 7.5 7.5 7.5s7.5-3.358 7.5-7.5v-228.29c0-4.142-3.357-7.5-7.5-7.5h-32.32c-4.143 0-7.5 3.358-7.5 7.5v89.476h-17.326v-89.476c0-4.142-3.357-7.5-7.5-7.5h-290.928c-4.143 0-7.5 3.358-7.5 7.5v89.476h-17.326v-89.476c0-4.142-3.357-7.5-7.5-7.5h-32.32c-4.143 0-7.5 3.358-7.5 7.5v75.14c0 4.142 3.357 7.5 7.5 7.5s7.5-3.358 7.5-7.5v-67.64h17.32v437.55h-17.32v-334.91c0-4.142-3.357-7.5-7.5-7.5s-7.5 3.358-7.5 7.5l-.004 386.86c0 4.142 3.357 7.5 7.5 7.5h32.325c4.143 0 7.5-3.358 7.5-7.5v-36.95h236.449c4.143 0 7.5-3.358 7.5-7.5s-3.357-7.5-7.5-7.5h-236.45v-17.322h340.58v17.322h-69.13c-4.143 0-7.5 3.358-7.5 7.5s3.357 7.5 7.5 7.5h69.129v36.95c0 4.142 3.357 7.5 7.5 7.5h32.325c4.143 0 7.5-3.358 7.5-7.5zm-402.899 226.21h-17.325v-29.447h17.325zm273.602-482h17.325v17.325h-17.325zm-32.325 0h17.325v24.825c0 4.142 3.357 7.5 7.5 7.5h32.325c4.143 0 7.5-3.358 7.5-7.5v-24.825h17.325v81.976h-81.976v-81.976zm-64.651 0h17.326v17.325h-17.326zm-32.325 0h17.325v24.825c0 4.142 3.357 7.5 7.5 7.5h32.326c4.143 0 7.5-3.358 7.5-7.5v-24.825h17.325v81.976h-81.977v-81.976zm-64.651 0h17.325v17.325h-17.325zm-32.325 0h17.325v24.825c0 4.142 3.357 7.5 7.5 7.5h32.325c4.143 0 7.5-3.358 7.5-7.5v-24.825h17.325v81.976h-81.976v-81.976zm81.976 405.228h-81.976v-81.976h17.325v24.825c0 4.142 3.357 7.5 7.5 7.5h32.325c4.143 0 7.5-3.358 7.5-7.5v-24.825h17.325v81.976zm-49.651-64.651v-17.325h17.325v17.325zm146.627 64.651h-81.977v-81.976h17.325v24.825c0 4.142 3.357 7.5 7.5 7.5h32.326c4.143 0 7.5-3.358 7.5-7.5v-24.825h17.325v81.976zm-49.651-64.651v-17.325h17.326v17.325zm146.627 64.651h-81.976v-81.976h17.325v24.825c0 4.142 3.357 7.5 7.5 7.5h32.325c4.143 0 7.5-3.358 7.5-7.5v-24.825h17.325v81.976zm-49.651-64.651v-17.325h17.325v17.325zm81.977 64.651h-17.326v-89.476c0-4.142-3.357-7.5-7.5-7.5h-290.928c-4.143 0-7.5 3.358-7.5 7.5v89.476h-17.326v-114.301h340.58zm0-129.301h-340.58v-17.325h340.58zm-275.347-81.976h32.325c4.143 0 7.5-3.358 7.5-7.5v-24.825h17.325v81.976h-81.976v-81.976h17.325v24.825c.001 4.142 3.359 7.5 7.501 7.5zm7.5-15v-17.325h17.325v17.325zm170.288 15h32.325c4.143 0 7.5-3.358 7.5-7.5v-24.825h17.325v81.976h-81.976v-81.976h17.325v24.825c.001 4.142 3.359 7.5 7.501 7.5zm7.5-15v-17.325h17.325v17.325zm90.059 64.651h-25.408v-89.476c0-4.142-3.357-7.5-7.5-7.5h-96.976c-4.143 0-7.5 3.358-7.5 7.5v89.476h-65.813v-89.476c0-4.142-3.357-7.5-7.5-7.5h-96.976c-4.143 0-7.5 3.358-7.5 7.5v89.476h-25.407v-114.301h340.58zm0-129.301h-340.58v-17.325h340.58zm32.324 367.699h-17.325v-29.447h17.325z"/></g></svg>