<svg enable-background="new 0 0 24 24" height="512" viewBox="0 0 24 24" width="512" xmlns="http://www.w3.org/2000/svg"><path d="m17.5 11c-3.584 0-6.5 2.916-6.5 6.5s2.916 6.5 6.5 6.5 6.5-2.916 6.5-6.5-2.916-6.5-6.5-6.5zm.53 10.78c-.07.07-.15.12-.24.16-.1.04-.19.06-.29.06-.2 0-.39-.08-.53-.22s-.22-.33-.22-.53.08-.39.22-.53c.21-.21.54-.28.82-.16.09.04.17.09.24.16.14.14.22.33.22.53s-.08.39-.22.53zm.961-4.122c-.277.212-.741.67-.741 1.352v.241c0 .414-.336.75-.75.75s-.75-.336-.75-.75v-.241c0-.968.484-1.894 1.327-2.542.265-.203.423-.534.423-.884 0-.598-.449-1.083-1-1.083s-1 .486-1 1.083c0 .414-.336.75-.75.75s-.75-.336-.75-.751c0-1.424 1.122-2.583 2.5-2.583s2.5 1.159 2.5 2.583c0 .814-.377 1.589-1.009 2.075z"/><path d="m9.22 0-4.86.02c-.63 0-1.22.35-1.52.9l-2.54 4.6 8.43-.02z"/><path d="m19.68 5.48-2.57-4.6c-.31-.55-.89-.9-1.53-.9l-4.86.02.51 5.5z"/><path d="m20 9.37c-.79-.24-1.63-.37-2.5-.37-4.69 0-8.5 3.81-8.5 8.5 0 .87.13 1.72.38 2.51l-7.77.02c-.01 0-.01 0-.01 0-.86 0-1.57-.71-1.57-1.58l-.04-11.43 9.25-.02h1.5l9.25-.03z"/></svg>