<svg id="Capa_1" enable-background="new 0 0 512 512" height="512" viewBox="0 0 512 512" width="512" xmlns="http://www.w3.org/2000/svg"><g><g><path d="m438.421 310.064c0 42.264 6.53 81.489-15.671 113.921-24.931 36.43-61.483 64.27-104.324 78.174-19.657 6.387-40.631 1.005-62.425 1.005-21.786 0-42.768 5.382-62.425-1.005-26.67-8.654-50.902-22.721-71.421-40.883-41.76-36.999-35.571-91.03-35.571-151.212 0-65.676-1.167-124.022 47.387-160.899 33.894-25.752 76.183-41.037 122.031-41.037 59.248 0 112.54 25.516 149.49 66.163 32.575 35.87 32.929 83.497 32.929 135.773z" fill="#b1e4f9"/><path d="m303.563 506.36c-15.253 3.689-31.18-.494-47.563-.494-21.788 0-42.769 2.684-62.428-3.7-26.67-8.661-50.906-22.721-71.418-40.891-41.765-36.996-35.572-91.03-35.572-151.211 0-65.673-1.169-124.025 47.382-160.905 33.898-25.749 76.181-41.031 122.036-41.031 16.382 0 32.31 1.95 47.563 5.64-88.576 21.372-154.381 101.155-154.381 196.296s65.805 174.925 154.381 196.296z" fill="#90d8f9"/><path d="m107.258 274.008c8.614 0 16.415 3.494 22.063 9.142s9.142 13.457 9.142 22.071c0 17.236-13.969 31.213-31.205 31.213h72.144c8.622 0 16.423 3.494 22.071 9.142s9.142 13.449 9.142 22.071c0 17.236-13.969 31.213-31.213 31.213h-25.126c6.948 0 13.368 2.275 18.552 6.111 1.243.918 2.422 1.934 3.519 3.031 4.526 4.518 7.663 10.418 8.736 17.024.268 1.633.406 3.324.406 5.038 0 17.244-13.977 31.213-31.213 31.213h-32.123c-41.76-36.999-68.089-91.03-68.089-151.212 0-65.676 31.351-124.022 79.905-160.899h40.98c8.614 0 16.423 3.494 22.071 9.142 3.502 3.502 6.176 7.834 7.696 12.677.943 2.958 1.446 6.119 1.446 9.394 0 17.236-13.977 31.205-31.213 31.205h21.478c8.622 0 16.423 3.494 22.071 9.142s9.142 13.457 9.142 22.071c0 17.244-13.969 31.213-31.213 31.213h-89.169z" fill="#9bd069"/><path d="m185.083 425.025c.268 1.633.406 3.324.406 5.038 0 17.244-13.977 31.213-31.213 31.213h-32.123c-41.76-36.999-68.089-91.03-68.089-151.212 0-65.676 31.351-124.022 79.905-160.899h40.98c8.614 0 16.423 3.494 22.071 9.142 3.502 3.502 6.176 7.834 7.696 12.677-26.556 27.946-45.198 63.482-52.325 103.024h-45.133c8.614 0 16.415 3.494 22.063 9.142s9.142 13.457 9.142 22.071c0 17.236-13.969 31.213-31.205 31.213h43.63c2.885 22.136 9.361 43.142 18.812 62.425h-15.424c6.948 0 13.368 2.275 18.552 6.111 3.698 6.94 7.793 13.636 12.255 20.055z" fill="#6ec17d"/><path d="m457.936 310.064c0 42.258-12.98 81.487-35.181 113.918h-39.054c-8.622 0-16.421-3.492-22.066-9.138-5.645-5.645-9.148-13.454-9.148-22.066 0-17.245 13.969-31.215 31.215-31.215h40.125c-8.622 0-16.421-3.492-22.066-9.148-5.645-5.635-9.138-13.434-9.138-22.056 0-17.245 13.969-31.215 31.204-31.215h-57.154c-8.622 0-16.421-3.492-22.066-9.148-5.645-5.645-9.138-13.444-9.138-22.066 0-17.235 13.969-31.215 31.204-31.215h-22.293c-8.612 0-16.421-3.492-22.066-9.137-5.656-5.645-9.148-13.454-9.148-22.077 0-17.235 13.98-31.204 31.215-31.204l30.092-27.784c50.569 36.694 83.463 96.28 83.463 163.551z" fill="#9bd069"/><path d="m318.425 494.878v7.281c-4.876 1.585-9.833 2.99-14.863 4.201-.041.008-.081.016-.122.033-15.212 3.665-31.09 5.607-47.44 5.607-21.786 0-42.768-3.454-62.425-9.841v-7.281c0-8.622 3.494-16.423 9.142-22.071 4.673-4.673 10.816-7.866 17.674-8.833 1.438-.203 2.901-.309 4.396-.309 14.806 0 27.206 10.304 30.408 24.135.528 2.275.804 4.648.804 7.078 0-2.162.219-4.274.634-6.306 2.917-14.221 15.505-24.907 30.579-24.907 17.236 0 31.213 13.969 31.213 31.213z" fill="#f6f9f9"/><path d="m303.563 506.36c-.041.008-.081.016-.122.033-15.213 3.665-31.091 5.607-47.441 5.607-21.786 0-42.768-3.454-62.425-9.841v-7.281c0-8.622 3.494-16.423 9.142-22.071 4.673-4.673 10.816-7.866 17.674-8.833 10.702 9.093 22.355 17.098 34.805 23.826.528 2.275.804 4.648.804 7.078 0-2.162.219-4.274.634-6.306 14.668 7.777 30.4 13.798 46.929 17.788z" fill="#dddaec"/></g><g><path d="m387.128 134.15c-.94 42.238-21.846 79.553-53.659 102.874-26.463 19.4-41.782 50.513-41.782 83.326 0 20.01-16.375 36.865-36.382 36.483-19.386-.37-34.977-16.191-34.977-35.666v-.811c0-32.914-15.511-63.98-42.015-83.494-32.431-23.878-53.474-62.33-53.474-105.686 0-73.072 59.748-132.189 133.041-131.163 72.513 1.016 130.862 61.635 129.248 134.137z" fill="#dd636e"/><circle cx="256.006" cy="131.171" fill="#f6f9f9" r="90.692"/><path d="m283.695 217.544c-8.727 2.801-18.039 4.316-27.693 4.316-50.086 0-90.689-40.603-90.689-90.689 0-50.105 40.603-90.708 90.689-90.708 9.654 0 18.967 1.514 27.693 4.316-36.533 11.698-62.996 45.941-62.996 86.392 0 40.433 26.463 74.675 62.996 86.373z" fill="#dddaec"/><g><g><path d="m256.005 171.363c-4.268 0-7.726-3.459-7.726-7.726v-23.205c0-4.267 3.459-7.726 7.726-7.726 6.953 0 13.423-2.781 18.217-7.831 4.791-5.047 7.23-11.665 6.868-18.636-.677-13.064-11.467-23.505-24.563-23.768-12.674-.266-23.645 9.03-25.399 21.601-.161 1.153-.242 2.336-.242 3.514 0 4.267-3.459 7.726-7.726 7.726s-7.726-3.459-7.726-7.726c0-1.892.132-3.793.391-5.651 2.834-20.318 20.453-35.307 41.015-34.914 21.157.426 38.589 17.301 39.684 38.417.583 11.245-3.356 21.927-11.095 30.076-5.932 6.247-13.453 10.345-21.697 11.919v16.204c-.001 4.267-3.459 7.726-7.727 7.726z" fill="#3342aa"/></g><path d="m256.005 195.331c-4.268 0-7.726-3.459-7.726-7.726v-.515c0-4.267 3.459-7.726 7.726-7.726s7.726 3.459 7.726 7.726v.515c0 4.267-3.458 7.726-7.726 7.726z" fill="#3342aa"/></g></g></g></svg>